# xmcd
#
# Track frame offsets:
#	150
#	9106
#	24281
#	37758
#	51565
#	63505
#	76020
#	92196
#	108739
#	121768
#	131383
#	144477
#	156937
#	170843
#	186183
#	204599
#	218038
#	230268
#	276881
#	292892
#	307345
#
# Disc length: 4261 seconds
#
# Revision: 1
# Processed by: cddbd v1.5PL3 Copyright (c) Steve Scherf et al.
# Submitted via: EasyCDDAExtractor 6.2.0.3
#
DISCID=2410a315
DTITLE=Nina Simone -  Four Women Box Set - CD2
DYEAR=1900
DGENRE=
TTITLE0=I Put A Spell On You - Beatiful Land
TTITLE1=I Put A Spell On You - Blues On Purpose
TTITLE2=I Put A Spell On You - Feeling Good
TTITLE3=I Put A Spell On You - Gimme Some
TTITLE4=I Put A Spell On You - I Put A Spell On You
TTITLE5=I Put A Spell On You - July Tree
TTITLE6=I Put A Spell On You - Marriage Is For Old Folks
TTITLE7=I Put A Spell On You - Ne Me Quitte Pas
TTITLE8=I Put A Spell On You - One September Day
TTITLE9=I Put A Spell On You - Take Care Of Business
TTITLE10=I Put A Spell On You - Tomorrow Is My Turn
TTITLE11=I Put A Spell On You - You've Got To Learn
TTITLE12=Pastel Blues - Aint' No Use
TTITLE13=Pastel Blues - Be My Husband
TTITLE14=Pastel Blues - Chill Wind Don't Blow
TTITLE15=Pastel Blues - End of the Line
TTITLE16=Pastel Blues - Nobody Knows You When You're Down And Out
TTITLE17=Pastel Blues - Sinnerman
TTITLE18=Pastel Blues - Strange Fruit
TTITLE19=Pastel Blues - Tell Me More and More and Then Some
TTITLE20=Pastel Blues - Trouble in Mind
EXTD=
EXTT0=
EXTT1=
EXTT2=
EXTT3=
EXTT4=
EXTT5=
EXTT6=
EXTT7=
EXTT8=
EXTT9=
EXTT10=
EXTT11=
EXTT12=
EXTT13=
EXTT14=
EXTT15=
EXTT16=
EXTT17=
EXTT18=
EXTT19=
EXTT20=
PLAYORDER=
